<svg xmlns="http://www.w3.org/2000/svg" viewBox="0 0 512 512">
  <defs>
    <radialGradient id="bg" cx="50%" cy="50%" r="70%">
      <stop offset="0" stop-color="#02060F" />
      <stop offset="1" stop-color="#000001" />
    </radialGradient>
    <linearGradient id="border" x1="0" y1="0" x2="1" y2="1">
      <stop offset="0" stop-color="#7CFCFF" />
      <stop offset="1" stop-color="#1B7CFF" />
    </linearGradient>
    <linearGradient id="fillLight" x1="0" y1="0" x2="1" y2="1">
      <stop offset="0" stop-color="#5BE1FF" />
      <stop offset="1" stop-color="#0E53F2" />
    </linearGradient>
    <pattern id="carbon" x="0" y="0" width="12" height="12" patternUnits="userSpaceOnUse">
      <rect width="12" height="12" fill="#051426" />
      <path d="M0 0l12 12M-3 6l9 9M6-3l9 9" stroke="#0C2947" stroke-width="1.8" />
      <path d="M0 12l12-12M-3 6l9-9M6 15l9-9" stroke="#123A60" stroke-width="1.3" />
    </pattern>
    <filter id="outerGlow" x="-50%" y="-50%" width="200%" height="200%">
      <feGaussianBlur stdDeviation="7" result="blur" />
      <feMerge>
        <feMergeNode in="blur" />
        <feMergeNode in="SourceGraphic" />
      </feMerge>
    </filter>
    <filter id="innerGlow">
      <feGaussianBlur stdDeviation="4" result="blur" />
      <feComposite in="SourceGraphic" in2="blur" operator="arithmetic" k2="1" k3="-0.6" />
    </filter>
  </defs>
  <rect width="512" height="512" fill="url(#bg)" />
  <rect x="70" y="70" width="372" height="372" rx="48" ry="48" fill="none" stroke="url(#border)" stroke-width="24" filter="url(#outerGlow)" />
  <path
    d="M178 120h156l30 30v66l-62 62 62 62v66l-30 30H178l-30-30v-66l62-62-62-62v-66z"
    fill="url(#carbon)"
    stroke="rgba(96,185,255,0.35)"
    stroke-width="8"
    filter="url(#innerGlow)"
  />
  <path
    d="M178 120h156l30 30v66l-62 62 62 62v66l-30 30H178l-30-30v-66l62-62-62-62v-66z"
    fill="none"
    stroke="url(#fillLight)"
    stroke-width="22"
    stroke-linecap="round"
    stroke-linejoin="round"
    filter="url(#outerGlow)"
  />
</svg>
